/* XPM */
static char * eraser_xpm[] = {
"26 24 5 1",
" 	c None",
".	c #000000",
"+	c #F8FCF8",
"@	c #D8D8D8",
"#	c #909090",
"                          ",
"                          ",
"                          ",
"                          ",
"                          ",
"                          ",
"                          ",
"                          ",
"             ........     ",
"            .++++++..     ",
"           .++++++.@.     ",
"          .++++++.@@.     ",
"         .++++++.@@.#     ",
"        .++++++.@@.##     ",
"       .++++++.@@.##      ",
"      ........@@.##       ",
"      .@@@@@@.@.##        ",
"      .@@@@@@..##         ",
"      ........##          ",
"       ######             ",
"                          ",
"                          ",
"                          ",
"                          "};
