/* XPM */
static char * hand01_xpm[] = {
"16 16 4 1",
" 	c None",
".	c #8E085E",
"+	c #B18A8A",
"@	c #B98B8B",
"                ",
"       ...      ",
"     ...+...    ",
"     .@.@.@..   ",
"     .@.@.@.@.  ",
"     .@.@.@.@.  ",
"     .@.@.@.@.  ",
"   ...@.@.@.@.  ",
"   .@.@@@@@.@.  ",
"   .@.@@@@@@@.  ",
"   .@.@@@@@@@.  ",
"   .@@@@@@@@@.  ",
"   .@@@@@@@@@.  ",
"    .@@@@@@@@.  ",
"     .@@@@@@.   ",
"     ........   "};
