/* XPM */
static char * howmany_xpm[] = {
"50 50 406 2",
"  	c None",
". 	c #FFFFFF",
"+ 	c #0686D4",
"@ 	c #0B9AE1",
"# 	c #0577D2",
"$ 	c #023EB3",
"% 	c #0412AB",
"& 	c #0210A2",
"* 	c #0817AC",
"= 	c #052DB7",
"- 	c #0929B6",
"; 	c #020598",
"> 	c #010194",
", 	c #040194",
"' 	c #04079E",
") 	c #0B27B6",
"! 	c #0527A4",
"~ 	c #0850C1",
"{ 	c #0460CC",
"] 	c #0B64CF",
"^ 	c #048BDB",
"/ 	c #0690DC",
"( 	c #0774D0",
"_ 	c #0554C7",
": 	c #0A35BC",
"< 	c #021BA5",
"[ 	c #0453BD",
"} 	c #075FC2",
"| 	c #0120A4",
"1 	c #091FA6",
"2 	c #010595",
"3 	c #02018C",
"4 	c #03018F",
"5 	c #020595",
"6 	c #011098",
"7 	c #0728A7",
"8 	c #0627B7",
"9 	c #0A44C5",
"0 	c #0796E0",
"a 	c #0566D4",
"b 	c #023CB6",
"c 	c #041CA9",
"d 	c #000989",
"e 	c #0C5CC7",
"f 	c #0380CD",
"g 	c #0572C9",
"h 	c #042BA5",
"i 	c #031A9B",
"j 	c #020194",
"k 	c #000190",
"l 	c #010592",
"m 	c #01069B",
"n 	c #00069A",
"o 	c #030798",
"p 	c #0509A5",
"q 	c #020EA4",
"r 	c #0686D0",
"s 	c #00018C",
"t 	c #030086",
"u 	c #030189",
"v 	c #00119B",
"w 	c #0667CB",
"x 	c #0533A5",
"y 	c #010084",
"z 	c #020282",
"A 	c #020288",
"B 	c #010A98",
"C 	c #0514AE",
"D 	c #010DA2",
"E 	c #02079C",
"F 	c #020399",
"G 	c #27B4EE",
"H 	c #00018A",
"I 	c #04008A",
"J 	c #030199",
"K 	c #0015AB",
"L 	c #0133B3",
"M 	c #0330A4",
"N 	c #080084",
"O 	c #030382",
"P 	c #020285",
"Q 	c #0411A7",
"R 	c #01069F",
"S 	c #000392",
"T 	c #010290",
"U 	c #03008D",
"V 	c #03028F",
"W 	c #0C66C7",
"X 	c #074DC3",
"Y 	c #02019A",
"Z 	c #03039B",
"` 	c #031CB2",
" .	c #0E36C4",
"..	c #0D2FB7",
"+.	c #032CAA",
"@.	c #010C97",
"#.	c #000898",
"$.	c #000292",
"%.	c #03008F",
"&.	c #03008C",
"*.	c #010089",
"=.	c #010189",
"-.	c #02008A",
";.	c #01008C",
">.	c #000196",
",.	c #0E52CE",
"'.	c #0940C6",
").	c #0417A6",
"!.	c #0428AF",
"~.	c #0676C9",
"{.	c #0833B9",
"].	c #0217A6",
"^.	c #01059B",
"/.	c #020097",
"(.	c #01009C",
"_.	c #030099",
":.	c #040091",
"<.	c #020088",
"[.	c #010086",
"}.	c #020186",
"|.	c #030299",
"1.	c #031AA4",
"2.	c #032FAD",
"3.	c #0A2FB5",
"4.	c #0323A8",
"5.	c #0E6BCD",
"6.	c #0125AD",
"7.	c #0105A0",
"8.	c #0205A4",
"9.	c #0205A6",
"0.	c #01059F",
"a.	c #01008B",
"b.	c #071EA7",
"c.	c #0345BA",
"d.	c #0846BF",
"e.	c #0A63D2",
"f.	c #0A35BE",
"g.	c #0223A6",
"h.	c #084CBB",
"i.	c #0013A5",
"j.	c #0109A7",
"k.	c #0323B9",
"l.	c #0D32C1",
"m.	c #010A91",
"n.	c #07028B",
"o.	c #000088",
"p.	c #000091",
"q.	c #0C5DC6",
"r.	c #1096E4",
"s.	c #0956C1",
"t.	c #0219A0",
"u.	c #010699",
"v.	c #040398",
"w.	c #0319A4",
"x.	c #0728B8",
"y.	c #041DAE",
"z.	c #050AA3",
"A.	c #0219AA",
"B.	c #092EB8",
"C.	c #0B29B2",
"D.	c #08149F",
"E.	c #06079C",
"F.	c #04029A",
"G.	c #010098",
"H.	c #0733B6",
"I.	c #0828B3",
"J.	c #000D94",
"K.	c #000186",
"L.	c #020096",
"M.	c #0207A0",
"N.	c #071BB2",
"O.	c #0622B1",
"P.	c #0A2EB5",
"Q.	c #0518AD",
"R.	c #080FA8",
"S.	c #0111A7",
"T.	c #011AAD",
"U.	c #0611A7",
"V.	c #0735BC",
"W.	c #0714A5",
"X.	c #000698",
"Y.	c #092AAA",
"Z.	c #010497",
"`.	c #010195",
" +	c #02008D",
".+	c #010190",
"++	c #020398",
"@+	c #02069F",
"#+	c #03059F",
"$+	c #050DA4",
"%+	c #0413A7",
"&+	c #01059C",
"*+	c #00079C",
"=+	c #000FA2",
"-+	c #00059B",
";+	c #114BCC",
">+	c #03089C",
",+	c #000499",
"'+	c #0F3EB6",
")+	c #010694",
"!+	c #020099",
"~+	c #020093",
"{+	c #00008D",
"]+	c #010292",
"^+	c #010297",
"/+	c #0808A3",
"(+	c #0102A0",
"_+	c #1043CB",
":+	c #0B48C5",
"<+	c #0A34B6",
"[+	c #0216A5",
"}+	c #0432AE",
"|+	c #116BD4",
"1+	c #0C3BBD",
"2+	c #02029B",
"3+	c #081EA8",
"4+	c #050290",
"5+	c #050195",
"6+	c #04009B",
"7+	c #010091",
"8+	c #00008F",
"9+	c #000290",
"0+	c #010598",
"a+	c #000293",
"b+	c #000695",
"c+	c #0B20B7",
"d+	c #040E99",
"e+	c #0B40C0",
"f+	c #0E46C3",
"g+	c #01019C",
"h+	c #020098",
"i+	c #020291",
"j+	c #0A0B9F",
"k+	c #000393",
"l+	c #000895",
"m+	c #0425B2",
"n+	c #031AAA",
"o+	c #0410A7",
"p+	c #0413A9",
"q+	c #0638B9",
"r+	c #0609A1",
"s+	c #040199",
"t+	c #00029A",
"u+	c #020198",
"v+	c #02069A",
"w+	c #0A0FA4",
"x+	c #000999",
"y+	c #01008D",
"z+	c #01018F",
"A+	c #010294",
"B+	c #04019B",
"C+	c #0308A6",
"D+	c #0407A7",
"E+	c #0515AB",
"F+	c #0A1CB2",
"G+	c #1223BA",
"H+	c #0007A1",
"I+	c #0536B7",
"J+	c #0730B7",
"K+	c #0116A4",
"L+	c #0925B3",
"M+	c #01008F",
"N+	c #030094",
"O+	c #02049D",
"P+	c #0214AD",
"Q+	c #0411AB",
"R+	c #000493",
"S+	c #000490",
"T+	c #010591",
"U+	c #000294",
"V+	c #0443B7",
"W+	c #0251BA",
"X+	c #0646B6",
"Y+	c #02069C",
"Z+	c #000092",
"`+	c #060098",
" @	c #0523B5",
".@	c #0518AC",
"+@	c #010096",
"@@	c #02009A",
"#@	c #03019A",
"$@	c #01089E",
"%@	c #0823B4",
"&@	c #010B9C",
"*@	c #03009C",
"=@	c #03089F",
"-@	c #030CA2",
";@	c #0415A7",
">@	c #0B1AAA",
",@	c #000397",
"'@	c #010298",
")@	c #0105A2",
"!@	c #0314AA",
"~@	c #040CA1",
"{@	c #000094",
"]@	c #01059A",
"^@	c #000298",
"/@	c #0005A1",
"(@	c #0621B4",
"_@	c #020A9E",
":@	c #000093",
"<@	c #0308A3",
"[@	c #02019E",
"}@	c #00039F",
"|@	c #0209A3",
"1@	c #0506A3",
"2@	c #04039C",
"3@	c #072BB8",
"4@	c #010A9B",
"5@	c #000192",
"6@	c #01009B",
"7@	c #04009D",
"8@	c #02019C",
"9@	c #020090",
"0@	c #030091",
"a@	c #040090",
"b@	c #030092",
"c@	c #000195",
"d@	c #040098",
"e@	c #07009A",
"f@	c #050099",
"g@	c #000599",
"h@	c #010299",
"i@	c #01019B",
"j@	c #00029D",
"k@	c #00019E",
"l@	c #04019F",
"m@	c #0829B7",
"n@	c #0818AC",
"o@	c #030BA5",
"p@	c #0006A3",
"q@	c #0205A3",
"r@	c #010AA4",
"s@	c #051CAD",
"t@	c #0229AA",
"u@	c #032AB3",
"v@	c #061FAE",
"w@	c #051DAF",
"x@	c #0622B4",
"y@	c #0411A9",
"z@	c #010B9E",
"A@	c #000BA1",
"B@	c #0317AB",
"C@	c #0229AE",
"D@	c #0629B4",
"E@	c #00069C",
"F@	c #000097",
"G@	c #020197",
"H@	c #03039C",
"I@	c #0220A9",
"J@	c #0014A1",
"K@	c #0001A1",
"L@	c #03069F",
"M@	c #00019B",
"N@	c #000F9B",
"O@	c #00028F",
"P@	c #020BA1",
"Q@	c #0C1BB1",
"R@	c #00049A",
"S@	c #00029C",
"T@	c #02009C",
"U@	c #02099D",
"V@	c #01129C",
"W@	c #0105A1",
"X@	c #0222A7",
"Y@	c #010AA1",
"Z@	c #03019E",
"`@	c #0112A1",
" #	c #0220A3",
".#	c #083DB8",
"+#	c #116ADB",
"@#	c #0C67D3",
"##	c #0245B4",
"$#	c #0636B8",
"%#	c #0011A7",
"&#	c #06009A",
"*#	c #020091",
"=#	c #05008B",
"-#	c #04028A",
";#	c #000F92",
">#	c #0962CE",
",#	c #0446B6",
"'#	c #01149F",
")#	c #00049D",
"!#	c #00028E",
"~#	c #000387",
"{#	c #010286",
"]#	c #030188",
"^#	c #0C4FC2",
"/#	c #045DC6",
"(#	c #0C37BA",
"_#	c #0930BF",
":#	c #02008C",
"<#	c #010185",
"[#	c #010284",
"}#	c #020287",
"|#	c #0947BB",
"1#	c #0756C3",
"2#	c #0532B5",
"3#	c #010EA6",
"4#	c #05018A",
"5#	c #000494",
"6#	c #0247B8",
"7#	c #0443C0",
"8#	c #0415AA",
"9#	c #00019D",
". . . . . . . . . . . . . . . . . . . . . . . . . . . . . . . . . . . . . . . . . . . . . . . . . . ",
". . . . . . . . . . . . . . . . . . . . . . . . . . . . . . . . . . . . . . . . . . . . . . . . . . ",
". . . . . . . . . . . . . . . . . . . . . . . . . . . . . . . . . . . . . . . . . . . . . . . . . . ",
". . . . . . + @ # $ % & * = - ; > , ' ) ! ~ { ] . . . . . . . . . . . . . . . . . . . . . . . . . . ",
". . . . . . ^ / ( _ : < [ } | 1 2 3 4 5 6 7 8 9 . . . . . . . . . . . . . . . . . . . . . . . . . . ",
". . . . . . 0 a b c d e f g h i j k l m n o p q . . . . . . . . . . . . . . . . . . . . . . . . . . ",
". . . . . . r s t u v w + x y z A B * C D E ' F . . . . . . . . . . . . . . . . . . . . . . . . . . ",
". . . . . . G H I J K L ^ M N O P < Q R S T U V . . . . . . . . . . . . . . . . . . . . . . . . . . ",
". . . . . . W X Y Z `  ...a +.@.#.$.%.&.*.=.-.;.. . . . . . . . . . . . . . . . . . . . . . . . . . ",
". . . . . . >.,.'.).!.~.{.].^./.(._.:.<.[.z }.*.. . . . . . . . . . . . . . . . . . . . . . . . . . ",
". . . . . . |.1.2.3.4.5.G 6.7.8.9.0.2 <.N O P a.. . . . . . . . . . . . . . . . . . . . . . . . . . ",
". . . . . . b.c.d.e.f.g.h.X i.j.k.l...m.n.o.;.p.. . . . . . . . . . . . . . . . . . . . . . . . . . ",
". . . . . . q.r.s.t.u.v.w.,.x.y.z.A.B.C.D.E.F.G.. . . . . . . . . . . . . . . . . . . . . . . . . . ",
". . . . . . H.I.J.K.o.L.M.N.O.P.Q.R.S.T.U.V.W.X.. . . . . . . . . . . . . . . . . . . . . . . . . . ",
". . . . . . Y.Z.`. +a..+++@+#+$+%+&+*+=+-+;+>+,+. . . . . . . . . . . . . . . . . . . . . . . . . . ",
". . . . . . '+)+!+/.~+{+]+^+/+(+_+:+<+[+}+|+1+2+. . . . . . . . . . . . . . . . . . . . . . . . . . ",
". . . . . . 3+4+5+6+Y 7+8+9+0+z.+ @ # $ % & * C D E ' F a+b+! ~ { ] . . . . . . . . . . . . . . . . ",
". . . . . . c+d+e+f+g+h+7+{+i+j+^ / ( _ : < Q R S T U V S k+U l+m+n+. . . . . . . . . . . . . . . . ",
". . . . . . o+p+q+r+s+t+t+u+v+w+0 a b c x+$.%.&.*.=.-.;.y+z+A+B+C+D+. . . . . . . . . . . . . . . . ",
". . . . . . E+F+G+H+I+_.J+J K+L+r ].^./.(._.:.<.y z }.*.M+~+N+O+P+Q+. . . . . . . . . . . . . . . . ",
". . . . . . R+S+T+U+V+W+X+Y+e+f+G 6.7.8.9.0.2 <.N O P a.Z+/.`+&+ @.@. . . . . . . . . . . . . . . . ",
". . . . . . . . . . . . . . . . W X i.j.k. ...m.n.o.;.p.+@@@#@$@%@&@. . . . . . . . . . . . . . . . ",
". . . . . . . . . . . . . . . . w.,.'.y.z.A.B.C.D.E.F.G.@@*@=@-@;@A+. . . . . . . . . . . . . . . . ",
". . . . . . . . . . . . . . . . M.N.O.P.Q.R.S.T.U.>@W.X.,@'@)@!@~@{@. . . . . . . . . . . . . . . . ",
". . . . . . . . . . . . . . . . ++@+#+$+%+&+*+=+-+]@>+,+^@^@/@(@_@:@. . . . . . . . . . . . . . . . ",
". . . . . . . . . . . . . . . . ]+^+/+(+<@[@}@|@1@B+2@2+t+t+0.3@4@5@. . . . . . . . . . . . . . . . ",
". . . . . . . . . . . . . . . . 8+9+0+z.6@7@*@(.8@+ @ # $ % & * C D E ' F a+b+! ~ { ] . . . . . . . ",
". . . . . . . . . . . . . . . . 7+{+i+j+9@0@:.a@M+^ / ( _ : < Q R S T U V S k+U l+m+n+. . . . . . . ",
". . . . . . . . . . . . . . . . t+u+v+w+b@Z+c@d@e@0 a b c x+$.%.&.*.=.-.;.y+z+A+B+C+D+. . . . . . . ",
". . . . . . . . . . . . . . . . f@J K+L+g@h@i@j@k@r ].^./.(._.:.<.y z }.*.M+~+N+O+P+Q+. . . . . . . ",
". . . . . . . . . . . . . . . . l@Y+e+f+m@n@o@p@q@G 6.7.8.9.0.2 <.N O P a.Z+/.`+&+ @.@. . . . . . . ",
". . . . . . . . . . . . . . . . r@s@q+t@u@v@w@x@y@W X i.j.k. ...m.n.o.;.p.+@@@#@$@%@&@. . . . . . . ",
". . . . . . . . . . . . . . . . z@^.A@B@I+C@J+D@E@w.,.'.y.z.A.B.C.D.E.F.G.@@*@=@-@;@A+. . . . . . . ",
". . . . . . . . . . . . . . . . F@G@H@I@V+W+X+J@K@M.N.O.P.Q.R.S.T.U.>@W.X.,@'@)@!@~@{@. . . . . . . ",
". . . . . . . . . . . . . . . . . . . . . . . . . ++@+#+$+%+&+*+=+-+]@>+,+^@^@/@(@_@:@. . . . . . . ",
". . . . . . . . . . . . . . . . . . . . . . . . . ]+^+/+(+<@[@}@|@1@B+2@2+t+t+0.3@4@5@. . . . . . . ",
". . . . . . . . . . . . . . . . . . . . . . . . . 8+9+0+z.6@7@*@(.8@L@L@M@M@i@Y+V.N@O@. . . . . . . ",
". . . . . . . . . . . . . . . . . . . . . . . . . 7+{+i+j+9@0@:.a@M+P@Q@R@S@T@U@;+V@9+. . . . . . . ",
". . . . . . . . . . . . . . . . . . . . . . . . . t+u+v+w+b@Z+c@d@e@W@_+:+<+X@}+|+1+Y@. . . . . . . ",
". . . . . . . . . . . . . . . . . . . . . . . . . f@J K+L+g@h@i@j@k@Z@`@ #.#+#@###$#%#. . . . . . . ",
". . . . . . . . . . . . . . . . . . . . . . . . . l@Y+e+f+m@n@o@p@q@&#*#=#-#;#>#,#'#)#. . . . . . . ",
". . . . . . . . . . . . . . . . . . . . . . . . . r@s@q+t@u@v@w@x@y@L.!#~#{#]#^#/#(#_#. . . . . . . ",
". . . . . . . . . . . . . . . . . . . . . . . . . z@^.A@B@I+C@J+D@E@N+:#<#[#}#|#1#2#3#. . . . . . . ",
". . . . . . . . . . . . . . . . . . . . . . . . . F@G@H@I@V+W+X+J@K@b@.+u 4#5#6#7#8#9#. . . . . . . ",
". . . . . . . . . . . . . . . . . . . . . . . . . . . . . . . . . . . . . . . . . . . . . . . . . . ",
". . . . . . . . . . . . . . . . . . . . . . . . . . . . . . . . . . . . . . . . . . . . . . . . . . ",
". . . . . . . . . . . . . . . . . . . . . . . . . . . . . . . . . . . . . . . . . . . . . . . . . . ",
". . . . . . . . . . . . . . . . . . . . . . . . . . . . . . . . . . . . . . . . . . . . . . . . . . ",
". . . . . . . . . . . . . . . . . . . . . . . . . . . . . . . . . . . . . . . . . . . . . . . . . . ",
". . . . . . . . . . . . . . . . . . . . . . . . . . . . . . . . . . . . . . . . . . . . . . . . . . "};
