/* XPM */
static char * pencil_xpm[] = {
"16 16 12 1",
" 	c None",
".	c #800000",
"+	c #C00000",
"@	c #FFC0C0",
"#	c #000000",
"$	c #FFFFFF",
"%	c #C3C3C3",
"&	c #DCDCDC",
"*	c #808080",
"=	c #303030",
"-	c #A0A0A0",
";	c #400000",
"            .+@+",
"           .+@++",
"          .+@+++",
"         .+@+++.",
"        .+@+++..",
"       .+@+++..#",
"      .+@+++..# ",
"     .+@+++..#  ",
"    .+@+++..#   ",
"   $$%+++..#    ",
"   $$&%+..#     ",
"  $$&%%*.#      ",
"  $&%%*=#       ",
" $+%-=#         ",
" +.;#           ",
" .;             "};
