/* XPM */
static char * transform_xpm[] = {
"28 25 6 1",
" 	c None",
".	c #000000",
"+	c #909090",
"@	c #D8D8D8",
"#	c #909490",
"$	c #D0D4D0",
"                            ",
"                            ",
"                            ",
"                            ",
"      .......               ",
"      .+++++.+.+.+.         ",
"      .+++++.@@@@@+         ",
"      .++@@@@..........     ",
"      .++@@@+@@@@@+@@@.+    ",
"      ...@+++@@@@@.@@@.+   #",
"      $+@.@@@@@@@@+@@@.+   #",
"       .@.@@@@@@@@+@@@.+    ",
"       +@.@@@@@@@.@@@@.+    ",
"       .+.+.+.+.+@.@.@.+    ",
"         .@@@@@@@@@..@.+    ",
"         .@@@@@@@@...@.+    ",
"         .@@@@@@@@@@@@.+    ",
"         ..............+    ",
"           +++++++++++++    ",
"                            ",
"                            ",
"                            ",
"                            ",
"                            ",
"                            "};
